<svg xmlns="http://www.w3.org/2000/svg" viewBox="0 0 31.38 28.2"><defs><style>.cls-1{fill:#29323c;}.cls-1,.cls-2,.cls-3{stroke:#000;stroke-miterlimit:10;stroke-width:0.43px;}.cls-2{fill:red;}.cls-3{fill:#fff;}</style></defs><g id="Layer_2" data-name="Layer 2"><g id="Layer_2-2" data-name="Layer 2"><polyline class="cls-1" points="6.76 0.21 30.67 0.21 30.67 27.99 6.76 27.99"/><polyline class="cls-2" points="7.19 27.99 11.33 27.99 11.33 20.14 23.49 27.99 30.67 27.99 11.33 15.2 11.33 13.62 27.97 0.21 22.07 0.21 11.33 8.87 11.33 0.21 7.19 0.21"/><polygon class="cls-3" points="27.77 27.99 8.42 15.2 8.42 13.62 25.07 0.21 19.17 0.21 8.42 8.87 8.42 0.21 4.29 0.21 4.29 12.2 3.15 13.12 0.39 14.96 4.29 17.47 4.29 27.99 8.42 27.99 8.42 20.14 20.59 27.99 27.77 27.99"/></g></g></svg>