<svg xmlns="http://www.w3.org/2000/svg" viewBox="0 0 23.66 22.98"><defs><style>.cls-1{fill:red;stroke:#000;stroke-miterlimit:10;stroke-width:0.34px;}.cls-2{fill:#fff;}</style></defs><g id="Layer_2" data-name="Layer 2"><g id="Layer_2-2" data-name="Layer 2"><rect class="cls-1" x="4" y="0.17" width="19.49" height="22.64"/><polygon class="cls-2" points="16.06 22.4 5.98 15.79 5.98 22.4 3.44 22.4 3.44 14.13 0.66 12.3 2.38 11.13 3.44 10.27 3.44 0.84 5.98 0.84 5.98 8.19 14.96 0.84 18.47 0.84 5.98 11.06 5.98 12.7 20.43 22.4 16.06 22.4"/><path d="M17.44,1.21,5.88,10.67l-.26.22v2l.32.22L19.23,22H16.17L6.75,15.86l-1.13-.74V22H3.81v-8.1l-.33-.21L1.32,12.3l1.27-.86,0,0,0,0,.9-.74.27-.22V1.21H5.62V9L6.81,8l8.28-6.78h2.35m2-.73H14.83L6.35,7.42V.48H3.08V10.1l-.9.73L0,12.31l3.08,2v8.43H6.35V16.47L16,22.76h5.68L6.35,12.5V11.23L19.49.48Z"/></g></g></svg>